<svg aria-hidden="true" style="position: absolute; width: 0; height: 0; overflow: hidden;" version="1.1" xmlns="http://www.w3.org/2000/svg" xmlns:xlink="http://www.w3.org/1999/xlink">
<defs>
<symbol id="icon-analytics" viewBox="0 0 32 32">
<path fill="#ff6b08" style="fill: var(--color1, #ff6b08)" d="M16 0.615c7.477 0 13.538 6.061 13.538 13.538s-6.061 13.538-13.538 13.538c-7.477 0-13.538-6.061-13.538-13.538s6.061-13.538 13.538-13.538z"></path>
<path fill="#fff" style="fill: var(--color2, #fff)" d="M22.487 20.359h-12.974c-0.156 0-0.282 0.126-0.282 0.282s0.126 0.282 0.282 0.282h12.974c0.156 0 0.282-0.126 0.282-0.282s-0.126-0.282-0.282-0.282z"></path>
<path fill="#fff" style="fill: var(--color2, #fff)" d="M11.769 16.974h-1.692c-0.156 0-0.282 0.126-0.282 0.282v3.385c0 0.156 0.126 0.282 0.282 0.282h1.692c0.156 0 0.282-0.126 0.282-0.282v-3.385c0-0.156-0.126-0.282-0.282-0.282zM11.487 20.359h-1.128v-2.821h1.128v2.821z"></path>
<path fill="#fff" style="fill: var(--color2, #fff)" d="M15.154 14.154h-1.692c-0.156 0-0.282 0.126-0.282 0.282v6.205c0 0.156 0.126 0.282 0.282 0.282h1.692c0.156 0 0.282-0.126 0.282-0.282v-6.205c0-0.156-0.126-0.282-0.282-0.282zM14.872 20.359h-1.128v-5.641h1.128v5.641z"></path>
<path fill="#fff" style="fill: var(--color2, #fff)" d="M18.538 15.282h-1.692c-0.156 0-0.282 0.126-0.282 0.282v5.077c0 0.156 0.126 0.282 0.282 0.282h1.692c0.156 0 0.282-0.126 0.282-0.282v-5.077c0-0.156-0.126-0.282-0.282-0.282zM18.256 20.359h-1.128v-4.513h1.128v4.513z"></path>
<path fill="#fff" style="fill: var(--color2, #fff)" d="M21.923 11.897h-1.692c-0.156 0-0.282 0.126-0.282 0.282v8.462c0 0.156 0.126 0.282 0.282 0.282h1.692c0.156 0 0.282-0.126 0.282-0.282v-8.462c0-0.156-0.126-0.282-0.282-0.282zM21.641 20.359h-1.128v-7.897h1.128v7.897z"></path>
<path fill="#fff" style="fill: var(--color2, #fff)" d="M10.923 12.462c-0.622 0-1.128 0.506-1.128 1.128s0.506 1.128 1.128 1.128c0.622 0 1.128-0.506 1.128-1.128s-0.506-1.128-1.128-1.128zM10.923 14.154c-0.311 0-0.564-0.253-0.564-0.564s0.253-0.564 0.564-0.564 0.564 0.253 0.564 0.564c0 0.311-0.253 0.564-0.564 0.564z"></path>
<path fill="#fff" style="fill: var(--color2, #fff)" d="M14.308 9.641c-0.622 0-1.128 0.506-1.128 1.128s0.506 1.128 1.128 1.128c0.622 0 1.128-0.506 1.128-1.128s-0.506-1.128-1.128-1.128zM14.308 11.333c-0.311 0-0.564-0.253-0.564-0.564s0.253-0.564 0.564-0.564 0.564 0.253 0.564 0.564c0 0.311-0.253 0.564-0.564 0.564z"></path>
<path fill="#fff" style="fill: var(--color2, #fff)" d="M17.692 10.769c-0.622 0-1.128 0.506-1.128 1.128s0.506 1.128 1.128 1.128c0.622 0 1.128-0.506 1.128-1.128s-0.506-1.128-1.128-1.128zM17.692 12.462c-0.311 0-0.564-0.253-0.564-0.564s0.253-0.564 0.564-0.564 0.564 0.253 0.564 0.564c0 0.311-0.253 0.564-0.564 0.564z"></path>
<path fill="#fff" style="fill: var(--color2, #fff)" d="M21.077 7.385c-0.622 0-1.128 0.506-1.128 1.128s0.506 1.128 1.128 1.128c0.622 0 1.128-0.506 1.128-1.128s-0.506-1.128-1.128-1.128zM21.077 9.077c-0.311 0-0.564-0.253-0.564-0.564s0.253-0.564 0.564-0.564 0.564 0.253 0.564 0.564c0 0.311-0.253 0.564-0.564 0.564z"></path>
<path fill="#fff" style="fill: var(--color2, #fff)" d="M20.679 8.911c-0.11-0.11-0.289-0.11-0.399 0l-2.189 2.189c-0.11 0.11-0.11 0.289 0 0.399 0.055 0.055 0.128 0.082 0.2 0.082s0.144-0.027 0.199-0.082l2.189-2.189c0.11-0.11 0.11-0.289 0-0.399z"></path>
<path fill="#fff" style="fill: var(--color2, #fff)" d="M17.010 11.246l-1.812-0.517c-0.152-0.044-0.306 0.044-0.348 0.194s0.044 0.306 0.193 0.349l1.812 0.517c0.026 0.007 0.052 0.011 0.077 0.011 0.123 0 0.236-0.081 0.271-0.205 0.043-0.15-0.044-0.306-0.194-0.349z"></path>
<path fill="#fff" style="fill: var(--color2, #fff)" d="M13.868 11.121c-0.097-0.122-0.274-0.142-0.396-0.045l-2.127 1.696c-0.122 0.098-0.142 0.275-0.045 0.397 0.056 0.070 0.138 0.106 0.221 0.106 0.061 0 0.124-0.020 0.175-0.061l2.127-1.696c0.122-0.098 0.142-0.275 0.045-0.397z"></path>
</symbol>
</defs>
</svg>
