<svg aria-hidden="true" style="position: absolute; width: 0; height: 0; overflow: hidden;" version="1.1" xmlns="http://www.w3.org/2000/svg" xmlns:xlink="http://www.w3.org/1999/xlink">
<defs>

<symbol id="icon-bin" viewBox="0 0 32 32">
<path d="M6 32h20l2-22h-24zM20 4v-4h-8v4h-10v6l2-2h24l2 2v-6h-10zM18 4h-4v-2h4v2z"></path>
</symbol>

<symbol id="icon-exit" viewBox="0 0 32 32">
<path d="M24 20v-4h-10v-4h10v-4l6 6zM22 18v8h-10v6l-12-6v-26h22v10h-2v-8h-16l8 4v18h8v-6z"></path>
</symbol>

<symbol id="icon-close" viewBox="0 0 25 25" fill="none" >
<path d="M18.365 19.2771L12.4967 13.4089L6.78044 19.1251L5.83787 18.1825L11.5541 12.4663L5.71625 6.62842L6.59801 5.74666L12.4359 11.5845L18.1825 5.83787L19.1251 6.78045L13.3785 12.5271L19.2467 18.3954L18.365 19.2771Z" fill="#181C27"/>
</symbol>

<symbol id="arrow-left" viewBox="0 0 31 8" fill="none">
<path d="M0.646444 3.64645C0.451183 3.84171 0.451183 4.15829 0.646444 4.35356L3.82842 7.53554C4.02369 7.7308 4.34027 7.7308 4.53553 7.53554C4.7308 7.34027 4.7308 7.02369 4.53553 6.82843L1.70711 4L4.53553 1.17158C4.73079 0.976313 4.73079 0.659731 4.53553 0.464468C4.34027 0.269206 4.02369 0.269206 3.82842 0.464468L0.646444 3.64645ZM31 3.5L0.999998 3.5L0.999998 4.5L31 4.5L31 3.5Z" fill="#181C27"/>
</symbol>

<symbol id="icon-close" viewBox="0 0 25 25" fill="none" >
<path d="M18.365 19.2771L12.4967 13.4089L6.78044 19.1251L5.83787 18.1825L11.5541 12.4663L5.71625 6.62842L6.59801 5.74666L12.4359 11.5845L18.1825 5.83787L19.1251 6.78045L13.3785 12.5271L19.2467 18.3954L18.365 19.2771Z" fill="#181C27"/>
</symbol>

<symbol id="magnify-glass" viewBox="0 0 20 20" fill="none" >
<path d="M19.7556 18.5774L14.0682 12.89C15.1699 11.5292 15.8332 9.80003 15.8332 7.91672C15.8332 3.55177 12.2815 0.00012207 7.91656 0.00012207C3.55161 0.00012207 0 3.55173 0 7.91669C0 12.2816 3.55165 15.8333 7.9166 15.8333C9.7999 15.8333 11.5291 15.17 12.8899 14.0683L18.5773 19.7558C18.7398 19.9182 18.9531 19.9999 19.1665 19.9999C19.3798 19.9999 19.5932 19.9182 19.7557 19.7558C20.0815 19.4299 20.0815 18.9033 19.7556 18.5774ZM7.9166 14.1666C4.46996 14.1666 1.66666 11.3633 1.66666 7.91669C1.66666 4.47004 4.46996 1.66675 7.9166 1.66675C11.3632 1.66675 14.1665 4.47004 14.1665 7.91669C14.1665 11.3633 11.3632 14.1666 7.9166 14.1666Z" fill="#A6A6A6"/>
</symbol>

<symbol id="icon-edit" viewBox="0 0 20 20" fill="none" >
<path d="M9.99967 0C4.47707 0 0 4.4774 0 9.9998C0 15.5222 4.47707 20 9.99967 20C15.5223 20 19.9999 15.5225 19.9999 9.9998C19.9999 4.47713 15.5223 0 9.99967 0ZM14.7534 7.19633L13.8036 8.14613L11.8702 6.21287L11.1367 6.94633L13.0701 8.87973L8.328 13.6215L6.39473 11.6884L5.66127 12.4219L7.59453 14.3551L7.122 14.8277L7.113 14.8187C7.0606 14.9049 6.9754 14.9679 6.8742 14.9903L5.07133 15.3923C5.04433 15.3984 5.01687 15.4013 4.98973 15.4013C4.89133 15.4013 4.79573 15.3626 4.72487 15.2915C4.63393 15.2009 4.59607 15.0701 4.62407 14.9447L5.02587 13.1423C5.04853 13.0412 5.1116 12.9558 5.19773 12.9035L5.1886 12.8944L12.8199 5.26273C12.9318 5.15107 13.1135 5.15107 13.2254 5.26307L14.7535 6.79087C14.8654 6.90273 14.8654 7.08447 14.7534 7.19633Z" fill="#A6A6A6"/>
</symbol>

<symbol id="icon-delete" viewBox="0 0 20 20" fill="none" >
<path fill-rule="evenodd" clip-rule="evenodd" d="M10 0C4.47715 0 0 4.47715 0 10C0 15.5228 4.47715 20 10 20C15.5228 20 20 15.5228 20 10C20 4.47715 15.5228 0 10 0ZM11.0064 4.72437H9.00086V5.06183H8.2765V4.67712C8.2765 4.30377 8.58009 4 8.95326 4H11.054C11.4272 4 11.7308 4.30377 11.7307 4.67712V5.06183H11.0064V4.72437ZM13.4034 7.93164H6.60393C6.41762 7.93164 6.27095 8.09058 6.28597 8.27634L6.85442 15.3054C6.88609 15.6978 7.2134 16 7.60661 16H12.4006C12.7938 16 13.1211 15.6978 13.1528 15.3053L13.7212 8.27634C13.7363 8.09058 13.5897 7.93164 13.4034 7.93164ZM8.25032 15.2503C8.24272 15.2507 8.23512 15.251 8.22762 15.251C8.03774 15.251 7.87834 15.1031 7.86653 14.9111L7.5103 9.14059C7.49803 8.94092 7.64992 8.76907 7.8495 8.75681C8.04845 8.74472 8.22102 8.89624 8.23329 9.09601L8.58943 14.8665C8.60179 15.0662 8.44991 15.2379 8.25032 15.2503ZM10.3699 14.8888C10.3699 15.0888 10.2077 15.2509 10.0077 15.2509C9.80763 15.2509 9.64549 15.0888 9.64549 14.8888V9.11826C9.64549 8.91821 9.80763 8.75607 10.0077 8.75607C10.2076 8.75607 10.3699 8.91821 10.3699 9.11826V14.8888ZM12.497 9.13959L12.1569 14.9101C12.1456 15.1025 11.9859 15.2509 11.7957 15.2509L11.7809 15.2507L11.7741 15.2504C11.5744 15.2386 11.4221 15.0672 11.4339 14.8675L11.7739 9.09692C11.7856 8.89725 11.9565 8.7449 12.1567 8.75671C12.3564 8.76843 12.5087 8.93991 12.497 9.13959ZM14.418 6.10096L14.6559 6.81397C14.7017 6.95139 14.642 7.09165 14.5306 7.16159C14.4853 7.19016 14.4315 7.20728 14.3724 7.20728H5.63498C5.57593 7.20728 5.52218 7.19016 5.47677 7.16169C5.36535 7.09174 5.30566 6.95148 5.35153 6.81397L5.58938 6.10096C5.65201 5.913 5.82806 5.7862 6.02618 5.7862H13.9811C14.1793 5.7862 14.3553 5.913 14.418 6.10096Z" fill="#A6A6A6"/>

<symbol id="icon-add" viewBox="0 0 120 120" fill="none" >
<path   d="M22 10.996L13.003 10.996 13.003 2 10.997 2 10.997 10.996 2 10.996 2 13.003 10.997 13.003 10.997 22 13.003 22 13.003 13.003 22 13.003z"  fill="#2e2e2e"/>
</symbol>

</defs>
</svg>
